<?xml version="1.0" encoding="UTF-8" standalone="no"?>
<!-- Generator: Adobe Illustrator 27.5.0, SVG Export Plug-In . SVG Version: 6.00 Build 0)  -->

<svg
   version="1.1"
   x="0px"
   y="0px"
   viewBox="0 0 500 500"
   xml:space="preserve"
   id="svg113"
   sodipodi:docname="treeof44.svg"
   inkscape:version="1.4 (86a8ad7, 2024-10-11)"
   width="500"
   height="500"
   xmlns:inkscape="http://www.inkscape.org/namespaces/inkscape"
   xmlns:sodipodi="http://sodipodi.sourceforge.net/DTD/sodipodi-0.dtd"
   xmlns="http://www.w3.org/2000/svg"
   xmlns:svg="http://www.w3.org/2000/svg"><defs
   id="defs113" /><sodipodi:namedview
   id="namedview113"
   pagecolor="#ffffff"
   bordercolor="#000000"
   borderopacity="0.25"
   inkscape:showpageshadow="2"
   inkscape:pageopacity="0.0"
   inkscape:pagecheckerboard="0"
   inkscape:deskcolor="#d1d1d1"
   inkscape:zoom="1.1285424"
   inkscape:cx="388.5543"
   inkscape:cy="257.85473"
   inkscape:window-width="1920"
   inkscape:window-height="991"
   inkscape:window-x="-9"
   inkscape:window-y="-9"
   inkscape:window-maximized="1"
   inkscape:current-layer="g87"><inkscape:page
     x="0"
     y="0"
     width="500"
     height="500"
     id="page120"
     margin="0"
     bleed="0" /></sodipodi:namedview>
<g
   id="g85"
   transform="translate(-3.1013455,241.01885)"
   style="display:none"
   inkscape:label="hidden tournament part">
						<g
   id="g50">
							<path
   style="fill:none;stroke:#0e47a0;stroke-width:0.6782;stroke-miterlimit:10"
   d="m 299.659,373.23 v -6.645 c 0,-1.894 -1.536,-3.43 -3.43,-3.43 h -91.89 c -1.894,0 -3.43,1.536 -3.43,3.43 v 7.092"
   id="path49" />
							
								<line
   style="fill:none;stroke:#0e47a0;stroke-width:0.6782;stroke-miterlimit:10"
   x1="250.285"
   y1="363.15601"
   x2="250.285"
   y2="350.944"
   id="line49" />
						</g>
						
							<circle
   style="fill:#ffffff;stroke:#0e47a0;stroke-width:0.6782;stroke-miterlimit:10"
   cx="250.285"
   cy="363.15601"
   r="1.437"
   id="circle50" />
						<g
   id="g58">
							<g
   id="g56">
								<path
   style="fill:#0e47a0"
   d="m 421.62,406.96 h 50.972 l -5.544,14.292 c -0.746,1.924 -2.598,3.192 -4.661,3.192 h -50.972 l 5.544,-14.292 c 0.746,-1.924 2.598,-3.192 4.661,-3.192 z"
   id="path50" />
								<path
   style="fill:#0e47a0"
   d="m 421.62,384.623 h 50.972 l -5.544,14.292 c -0.746,1.924 -2.598,3.192 -4.661,3.192 h -50.972 l 5.544,-14.292 c 0.746,-1.924 2.598,-3.192 4.661,-3.192 z"
   id="path51" />
								<path
   style="fill:#0e47a0"
   d="m 421.62,362.286 h 50.972 l -5.544,14.292 c -0.746,1.924 -2.598,3.192 -4.661,3.192 h -50.972 l 5.544,-14.292 c 0.746,-1.925 2.598,-3.192 4.661,-3.192 z"
   id="path52" />
								<path
   style="fill:#0e47a0"
   d="m 421.62,339.949 h 50.972 l -5.544,14.292 c -0.746,1.924 -2.598,3.192 -4.661,3.192 h -50.972 l 5.544,-14.292 c 0.746,-1.925 2.598,-3.192 4.661,-3.192 z"
   id="path53" />
								<path
   style="fill:none;stroke:#0e47a0;stroke-width:0.6782;stroke-miterlimit:10"
   d="m 416.197,415.153 h -5.565 c -2.209,0 -4,-1.791 -4,-4 v -13.789 c 0,-2.209 1.791,-4 4,-4 h 5.565"
   id="path54" />
								<path
   style="fill:none;stroke:#0e47a0;stroke-width:0.6782;stroke-miterlimit:10"
   d="m 340.687,404.259 h -3.443 c -2.209,0 -4,-1.791 -4,-4 v -36.573 c 0,-2.209 1.791,-4 4,-4 h 3.443"
   id="path55" />
								<path
   style="fill:none;stroke:#0e47a0;stroke-width:0.6782;stroke-miterlimit:10"
   d="m 416.197,371.027 h -5.565 c -2.209,0 -4,-1.791 -4,-4 v -13.789 c 0,-2.209 1.791,-4 4,-4 h 5.565"
   id="path56" />
								
									<line
   style="fill:none;stroke:#0e47a0;stroke-width:0.6782;stroke-miterlimit:10"
   x1="333.24301"
   y1="381.97198"
   x2="325.84"
   y2="381.97198"
   id="line56" />
							</g>
							
								<line
   style="fill:none;stroke:#0e47a0;stroke-width:0.6782;stroke-miterlimit:10"
   x1="406.633"
   y1="404.733"
   x2="392.879"
   y2="404.733"
   id="line57" />
							
								<line
   style="fill:none;stroke:#0e47a0;stroke-width:0.6782;stroke-miterlimit:10"
   x1="406.633"
   y1="360.133"
   x2="391.67001"
   y2="360.133"
   id="line58" />
						</g>
						
							<circle
   style="fill:#ffffff;stroke:#0e47a0;stroke-width:0.6782;stroke-miterlimit:10"
   cx="406.633"
   cy="404.733"
   r="1.437"
   id="circle58" />
						
							<circle
   style="fill:#ffffff;stroke:#0e47a0;stroke-width:0.6782;stroke-miterlimit:10"
   cx="406.633"
   cy="360.133"
   r="1.437"
   id="circle59" />
						
							<circle
   style="fill:#ffffff;stroke:#0e47a0;stroke-width:0.6782;stroke-miterlimit:10"
   cx="333.24301"
   cy="381.97198"
   r="1.437"
   id="circle60" />
						<g
   id="g62">
							<path
   style="fill:#d22f2e"
   d="m 281.733,375.211 h 48.223 l 0.768,-1.981 h -50.972 c -2.064,0 -3.915,1.268 -4.661,3.192 l -5.544,14.292 h 2.749 l 4.775,-12.311 c 0.747,-1.924 2.599,-3.192 4.662,-3.192 z"
   id="path60" />
							<g
   id="g61">
								<path
   style="fill:#0e47a0"
   d="m 282.21,375.688 c -2.064,0 -3.915,1.268 -4.662,3.192 l -4.591,11.835 h 47.597 c 2.064,0 3.915,-1.268 4.661,-3.192 l 4.591,-11.835 z"
   id="path61" />
							</g>
						</g>
						<g
   id="g64">
							<path
   style="fill:#d22f2e"
   d="m 348.908,352.925 h 48.223 l 0.768,-1.981 h -50.972 c -2.064,0 -3.915,1.268 -4.662,3.192 l -5.544,14.292 h 2.749 l 4.776,-12.311 c 0.747,-1.924 2.598,-3.192 4.662,-3.192 z"
   id="path62" />
							<g
   id="g63">
								<path
   style="fill:#0e47a0"
   d="m 349.384,353.401 c -2.064,0 -3.915,1.268 -4.662,3.192 l -4.591,11.835 h 47.597 c 2.064,0 3.915,-1.268 4.662,-3.192 l 4.591,-11.835 z"
   id="path63" />
							</g>
						</g>
						<g
   id="g66">
							<path
   style="fill:#d22f2e"
   d="m 348.908,397.972 h 48.223 l 0.768,-1.981 h -50.972 c -2.064,0 -3.915,1.268 -4.662,3.192 l -5.544,14.292 h 2.749 l 4.776,-12.311 c 0.747,-1.924 2.598,-3.192 4.662,-3.192 z"
   id="path64" />
							<g
   id="g65">
								<path
   style="fill:#0e47a0"
   d="m 349.384,398.448 c -2.064,0 -3.915,1.268 -4.662,3.192 l -4.591,11.835 h 47.597 c 2.064,0 3.915,-1.268 4.662,-3.192 l 4.591,-11.835 z"
   id="path65" />
							</g>
						</g>
						<g
   id="g74">
							<g
   id="g72">
								<path
   style="fill:#0e47a0"
   d="M 78.407,357.432 H 27.435 l 5.544,-14.292 c 0.746,-1.924 2.598,-3.192 4.662,-3.192 h 50.972 l -5.544,14.292 c -0.747,1.924 -2.598,3.192 -4.662,3.192 z"
   id="path66" />
								<path
   style="fill:#0e47a0"
   d="M 78.407,379.769 H 27.435 l 5.544,-14.292 c 0.746,-1.924 2.598,-3.192 4.662,-3.192 h 50.972 l -5.544,14.292 c -0.747,1.924 -2.598,3.192 -4.662,3.192 z"
   id="path67" />
								<path
   style="fill:#0e47a0"
   d="M 78.407,402.106 H 27.435 l 5.544,-14.292 c 0.746,-1.924 2.598,-3.192 4.662,-3.192 h 50.972 l -5.544,14.292 c -0.747,1.925 -2.598,3.192 -4.662,3.192 z"
   id="path68" />
								<path
   style="fill:#0e47a0"
   d="M 78.407,424.443 H 27.435 l 5.544,-14.292 c 0.746,-1.924 2.598,-3.192 4.662,-3.192 h 50.972 l -5.544,14.292 c -0.747,1.925 -2.598,3.192 -4.662,3.192 z"
   id="path69" />
								<path
   style="fill:none;stroke:#0e47a0;stroke-width:0.6782;stroke-miterlimit:10"
   d="m 83.83,349.239 h 5.565 c 2.209,0 4,1.791 4,4 v 13.789 c 0,2.209 -1.791,4 -4,4 H 83.83"
   id="path70" />
								<path
   style="fill:none;stroke:#0e47a0;stroke-width:0.6782;stroke-miterlimit:10"
   d="m 158.911,360.133 h 3.443 c 2.209,0 4,1.791 4,4 v 36.573 c 0,2.209 -1.791,4 -4,4 h -3.443"
   id="path71" />
								<path
   style="fill:none;stroke:#0e47a0;stroke-width:0.6782;stroke-miterlimit:10"
   d="m 83.83,393.365 h 5.565 c 2.209,0 4,1.791 4,4 v 13.789 c 0,2.209 -1.791,4 -4,4 H 83.83"
   id="path72" />
								
									<line
   style="fill:none;stroke:#0e47a0;stroke-width:0.6782;stroke-miterlimit:10"
   x1="166.354"
   y1="382.42001"
   x2="173.758"
   y2="382.42001"
   id="line72" />
							</g>
							
								<line
   style="fill:none;stroke:#0e47a0;stroke-width:0.6782;stroke-miterlimit:10"
   x1="93.394997"
   y1="359.659"
   x2="106.719"
   y2="359.659"
   id="line73" />
							
								<line
   style="fill:none;stroke:#0e47a0;stroke-width:0.6782;stroke-miterlimit:10"
   x1="93.394997"
   y1="404.259"
   x2="107.927"
   y2="404.259"
   id="line74" />
						</g>
						<circle
   style="fill:#ffffff;stroke:#0e47a0;stroke-width:0.6782;stroke-miterlimit:10"
   cx="93.394997"
   cy="359.659"
   r="1.437"
   id="circle74" />
						<circle
   style="fill:#ffffff;stroke:#0e47a0;stroke-width:0.6782;stroke-miterlimit:10"
   cx="93.394997"
   cy="404.259"
   r="1.437"
   id="circle75" />
						<circle
   style="fill:#ffffff;stroke:#0e47a0;stroke-width:0.6782;stroke-miterlimit:10"
   cx="166.354"
   cy="382.42001"
   r="1.437"
   id="circle76" />
						<g
   id="g78">
							<path
   style="fill:#d22f2e"
   d="m 181.059,375.659 h 48.223 l 0.768,-1.981 h -50.972 c -2.064,0 -3.915,1.268 -4.662,3.192 l -5.544,14.292 h 2.749 l 4.775,-12.311 c 0.748,-1.925 2.6,-3.192 4.663,-3.192 z"
   id="path76" />
							<g
   id="g77">
								<path
   style="fill:#0e47a0"
   d="m 181.536,376.135 c -2.064,0 -3.915,1.268 -4.662,3.192 l -4.591,11.835 h 47.597 c 2.064,0 3.915,-1.268 4.662,-3.192 l 4.591,-11.835 z"
   id="path77" />
							</g>
						</g>
						<g
   id="g80">
							<path
   style="fill:#d22f2e"
   d="m 211.882,335.479 h 88.223 l 0.768,-1.981 h -90.972 c -2.064,0 -3.915,1.268 -4.662,3.192 l -5.544,14.292 h 2.749 l 4.775,-12.311 c 0.748,-1.925 2.599,-3.192 4.663,-3.192 z"
   id="path78" />
							<g
   id="g79">
								<path
   style="fill:#0e47a0"
   d="m 212.359,335.955 c -2.064,0 -3.915,1.268 -4.662,3.192 l -4.591,11.835 h 87.597 c 2.064,0 3.915,-1.268 4.662,-3.192 l 4.591,-11.835 z"
   id="path79" />
							</g>
						</g>
						<g
   id="g82">
							<path
   style="fill:#d22f2e"
   d="m 113.885,397.945 h 48.223 l 0.768,-1.981 h -50.972 c -2.064,0 -3.915,1.268 -4.661,3.192 l -5.544,14.292 h 2.749 l 4.775,-12.311 c 0.747,-1.924 2.598,-3.192 4.662,-3.192 z"
   id="path80" />
							<g
   id="g81">
								<path
   style="fill:#0e47a0"
   d="m 114.361,398.422 c -2.064,0 -3.915,1.268 -4.662,3.192 l -4.591,11.835 h 47.597 c 2.064,0 3.915,-1.268 4.661,-3.192 l 4.591,-11.835 z"
   id="path81" />
							</g>
						</g>
						<g
   id="g84">
							<path
   style="fill:#d22f2e"
   d="m 113.885,352.898 h 48.223 l 0.768,-1.981 h -50.972 c -2.064,0 -3.915,1.268 -4.661,3.192 l -5.544,14.292 h 2.749 l 4.775,-12.311 c 0.747,-1.924 2.598,-3.192 4.662,-3.192 z"
   id="path82" />
							<g
   id="g83">
								<path
   style="fill:#0e47a0"
   d="m 114.361,353.375 c -2.064,0 -3.915,1.268 -4.662,3.192 l -4.591,11.834 h 47.597 c 2.064,0 3.915,-1.268 4.661,-3.192 l 4.591,-11.835 h -47.596 z"
   id="path83" />
							</g>
						</g>
					</g>
<g
   id="Objects">
	<g
   id="g89">
		
		
		<g
   id="g88">
			
			
			<path
   style="fill:#d22f2e;stroke-width:1.04374"
   d="M 459.15294,258.25351 H 343.54078 l 5.62912,-14.28658 c 3.37579,-8.56719 11.75162,-14.21203 21.08581,-14.21203 h 115.61216 l -5.62913,14.28659 c -3.37579,8.56719 -11.75162,14.21202 -21.0858,14.21202 z"
   id="path9" />
			<path
   style="fill:#0e47a0;stroke-width:1.04374"
   d="M 450.50359,249.74017 H 334.89143 l 5.62912,-14.28658 c 3.3758,-8.56719 11.75163,-14.21203 21.08581,-14.21203 h 115.61216 l -5.62912,14.28659 c -3.37579,8.56615 -11.75057,14.21202 -21.08581,14.21202 z"
   id="path10" />
			<g
   id="g87">
				<g
   id="g86">
					<path
   style="fill:#ebeef0;stroke-width:1.04374"
   d="M 454.77041,253.93937 H 339.15825 l 5.62912,-14.28659 c 3.37579,-8.56718 11.75162,-14.21202 21.08581,-14.21202 h 115.61216 l -5.62913,14.28658 c -3.37579,8.56719 -11.75162,14.21203 -21.0858,14.21203 z"
   id="path11" />
					<g
   id="g49"
   transform="matrix(2.1936918,0,0,2.1594594,-44.176114,-195.90337)">
						
						
							
						<g
   id="g30">
							<g
   id="g21">
								<g
   id="g19">
									<path
   style="fill:#0e47a0"
   d="M 78.701,181.041 H 27.729 l 5.544,-14.292 c 0.746,-1.924 2.598,-3.192 4.662,-3.192 h 50.972 l -5.544,14.292 c -0.746,1.925 -2.598,3.192 -4.662,3.192 z"
   id="path13" />
									<path
   style="fill:#0e47a0"
   d="M 78.701,203.378 H 27.729 l 5.544,-14.292 c 0.746,-1.924 2.598,-3.192 4.662,-3.192 h 50.972 l -5.544,14.292 c -0.746,1.925 -2.598,3.192 -4.662,3.192 z"
   id="path14" />
									<path
   style="fill:#0e47a0"
   d="M 78.701,225.715 H 27.729 l 5.544,-14.292 c 0.746,-1.924 2.598,-3.192 4.662,-3.192 h 50.972 l -5.544,14.292 c -0.746,1.925 -2.598,3.192 -4.662,3.192 z"
   id="path15" />
									<path
   style="fill:#0e47a0"
   d="M 78.701,248.053 H 27.729 l 5.544,-14.292 c 0.746,-1.924 2.598,-3.192 4.662,-3.192 h 50.972 l -5.544,14.292 c -0.746,1.924 -2.598,3.192 -4.662,3.192 z"
   id="path16" />
									<path
   style="fill:none;stroke:#0e47a0;stroke-width:0.6782;stroke-miterlimit:10"
   d="m 84.124,172.848 h 5.565 c 2.209,0 4,1.791 4,4 v 13.789 c 0,2.209 -1.791,4 -4,4 h -5.565"
   id="path17" />
									<path
   style="fill:none;stroke:#0e47a0;stroke-width:0.6782;stroke-miterlimit:10"
   d="m 158.911,183.742 h 3.443 c 2.209,0 4,1.791 4,4 v 36.573 c 0,2.209 -1.791,4 -4,4 h -3.443"
   id="path18" />
									<path
   style="fill:none;stroke:#0e47a0;stroke-width:0.6782;stroke-miterlimit:10"
   d="m 84.124,216.974 h 5.565 c 2.209,0 4,1.791 4,4 v 13.789 c 0,2.209 -1.791,4 -4,4 h -5.565"
   id="path19" />
									
										<line
   style="fill:none;stroke:#0e47a0;stroke-width:0.6782;stroke-miterlimit:10"
   x1="166.354"
   y1="206.02901"
   x2="173.758"
   y2="206.02901"
   id="line19" />
								</g>
								
									<line
   style="fill:none;stroke:#0e47a0;stroke-width:0.6782;stroke-miterlimit:10"
   x1="93.689003"
   y1="183.26801"
   x2="106.719"
   y2="183.26801"
   id="line20" />
								
									<line
   style="fill:none;stroke:#0e47a0;stroke-width:0.6782;stroke-miterlimit:10"
   x1="93.689003"
   y1="227.868"
   x2="107.927"
   y2="227.868"
   id="line21" />
							</g>
							<path
   style="fill:#ffffff;stroke:#0e47a0;stroke-width:0.6782;stroke-miterlimit:10"
   d="m 95.126,183.268 c 0,0.794 -0.644,1.437 -1.437,1.437 -0.794,0 -1.437,-0.644 -1.437,-1.437 0,-0.794 0.644,-1.437 1.437,-1.437 0.794,0 1.437,0.643 1.437,1.437 z"
   id="path21" />
							<path
   style="fill:#ffffff;stroke:#0e47a0;stroke-width:0.6782;stroke-miterlimit:10"
   d="m 95.126,227.868 c 0,0.794 -0.644,1.437 -1.437,1.437 -0.794,0 -1.437,-0.644 -1.437,-1.437 0,-0.794 0.644,-1.437 1.437,-1.437 0.794,0 1.437,0.643 1.437,1.437 z"
   id="path22" />
							
								<circle
   style="fill:#ffffff;stroke:#0e47a0;stroke-width:0.6782;stroke-miterlimit:10"
   cx="166.354"
   cy="206.02901"
   r="1.437"
   id="circle22" />
							
							<g
   id="g27">
								<path
   style="fill:#d22f2e"
   d="m 113.885,221.554 h 48.223 l 0.768,-1.981 h -50.972 c -2.064,0 -3.915,1.268 -4.661,3.192 l -5.544,14.292 h 2.749 l 4.775,-12.311 c 0.747,-1.924 2.598,-3.192 4.662,-3.192 z"
   id="path25" />
								<g
   id="g26">
									<path
   style="fill:#0e47a0"
   d="m 114.361,222.031 c -2.064,0 -3.915,1.268 -4.662,3.192 l -4.591,11.835 h 47.597 c 2.064,0 3.915,-1.268 4.661,-3.192 l 4.591,-11.835 z"
   id="path26" />
								</g>
							</g>
							<g
   id="g29">
								<path
   style="fill:#d22f2e"
   d="m 113.885,176.507 h 48.223 l 0.768,-1.981 h -50.972 c -2.064,0 -3.915,1.268 -4.661,3.192 l -5.544,14.292 h 2.749 l 4.775,-12.311 c 0.747,-1.924 2.598,-3.192 4.662,-3.192 z"
   id="path27" />
								<g
   id="g28">
									<path
   style="fill:#0e47a0"
   d="m 114.361,176.984 c -2.064,0 -3.915,1.268 -4.662,3.192 l -4.591,11.834 h 47.597 c 2.064,0 3.915,-1.268 4.661,-3.192 l 4.591,-11.835 h -47.596 z"
   id="path28" />
								</g>
							</g>
						</g>
						
					</g>
					
				</g><text
   transform="matrix(1.007895,0,-0.23907726,0.99216685,0,0)"
   style="font-style:normal;font-variant:normal;font-weight:bold;font-stretch:normal;font-size:13.9164px;font-family:'Artifakt Element';-inkscape-font-specification:'Artifakt Element, Bold';font-variant-ligatures:normal;font-variant-caps:normal;font-variant-numeric:normal;font-variant-east-asian:normal;fill:#333333;stroke-width:1.01555"
   id="player1"
   x="103.8139"
   y="181.22716"><tspan
     style="font-style:normal;font-variant:normal;font-weight:bold;font-stretch:normal;font-size:13.9164px;font-family:'Artifakt Element';-inkscape-font-specification:'Artifakt Element, Bold';font-variant-ligatures:normal;font-variant-caps:normal;font-variant-numeric:normal;font-variant-east-asian:normal;fill:#f9f9f9;stroke-width:1.01555"
     id="tspan113-1">Player</tspan></text>
				
					<text
   transform="matrix(1.007895,0,-0.23907726,0.99216685,0,0)"
   style="font-size:20.5338px;font-family:BebasNeueBold;fill:#333333;stroke-width:1.01555"
   id="champion"
   x="425.11511"
   y="246.60069"><tspan
     style="font-style:normal;font-variant:normal;font-weight:800;font-stretch:normal;font-size:16.6998px;font-family:'Artifakt Element';-inkscape-font-specification:'Artifakt Element, Ultra-Bold';font-variant-ligatures:normal;font-variant-caps:normal;font-variant-numeric:normal;font-variant-east-asian:normal;stroke-width:1.01555"
     id="tspan113">champion</tspan></text>
			<g
   id="g113"
   transform="translate(-735.32379,95.462801)" /><text
   transform="matrix(1.007895,0,-0.23907726,0.99216685,0,0)"
   style="font-style:normal;font-variant:normal;font-weight:bold;font-stretch:normal;font-size:13.9164px;font-family:'Artifakt Element';-inkscape-font-specification:'Artifakt Element, Bold';font-variant-ligatures:normal;font-variant-caps:normal;font-variant-numeric:normal;font-variant-east-asian:normal;fill:#333333;stroke-width:1.01555"
   id="player3"
   x="126.8781"
   y="278.46048"><tspan
     style="font-style:normal;font-variant:normal;font-weight:bold;font-stretch:normal;font-size:13.9164px;font-family:'Artifakt Element';-inkscape-font-specification:'Artifakt Element, Bold';font-variant-ligatures:normal;font-variant-caps:normal;font-variant-numeric:normal;font-variant-east-asian:normal;fill:#f9f9f9;stroke-width:1.01555"
     id="tspan114">Player</tspan></text><text
   transform="matrix(1.007895,0,-0.23907726,0.99216685,0,0)"
   style="font-style:normal;font-variant:normal;font-weight:bold;font-stretch:normal;font-size:13.9164px;font-family:'Artifakt Element';-inkscape-font-specification:'Artifakt Element, Bold';font-variant-ligatures:normal;font-variant-caps:normal;font-variant-numeric:normal;font-variant-east-asian:normal;fill:#333333;stroke-width:1.01555"
   id="player2"
   x="115.34599"
   y="229.84383"><tspan
     style="font-style:normal;font-variant:normal;font-weight:bold;font-stretch:normal;font-size:13.9164px;font-family:'Artifakt Element';-inkscape-font-specification:'Artifakt Element, Bold';font-variant-ligatures:normal;font-variant-caps:normal;font-variant-numeric:normal;font-variant-east-asian:normal;fill:#f9f9f9;stroke-width:1.01555"
     id="tspan115">Player</tspan></text><text
   transform="matrix(1.007895,0,-0.23907726,0.99216685,0,0)"
   style="font-style:normal;font-variant:normal;font-weight:bold;font-stretch:normal;font-size:13.9164px;font-family:'Artifakt Element';-inkscape-font-specification:'Artifakt Element, Bold';font-variant-ligatures:normal;font-variant-caps:normal;font-variant-numeric:normal;font-variant-east-asian:normal;fill:#333333;stroke-width:1.01555"
   id="player4"
   x="138.41071"
   y="327.07935"><tspan
     style="font-style:normal;font-variant:normal;font-weight:bold;font-stretch:normal;font-size:13.9164px;font-family:'Artifakt Element';-inkscape-font-specification:'Artifakt Element, Bold';font-variant-ligatures:normal;font-variant-caps:normal;font-variant-numeric:normal;font-variant-east-asian:normal;fill:#f9f9f9;stroke-width:1.01555"
     id="tspan116">Player</tspan></text><text
   transform="matrix(1.007895,0,-0.23907726,0.99216685,0,0)"
   style="font-style:normal;font-variant:normal;font-weight:bold;font-stretch:normal;font-size:13.9164px;font-family:'Artifakt Element';-inkscape-font-specification:'Artifakt Element, Bold';font-variant-ligatures:normal;font-variant-caps:normal;font-variant-numeric:normal;font-variant-east-asian:normal;fill:#333333;stroke-width:1.01555"
   id="winner12"
   x="273.81619"
   y="207.77512"><tspan
     style="font-style:normal;font-variant:normal;font-weight:bold;font-stretch:normal;font-size:13.9164px;font-family:'Artifakt Element';-inkscape-font-specification:'Artifakt Element, Bold';font-variant-ligatures:normal;font-variant-caps:normal;font-variant-numeric:normal;font-variant-east-asian:normal;fill:#f9f9f9;stroke-width:1.01555"
     id="tspan117">Player</tspan></text><text
   transform="matrix(1.007895,0,-0.23907726,0.99216685,0,0)"
   style="font-style:normal;font-variant:normal;font-weight:bold;font-stretch:normal;font-size:13.9164px;font-family:'Artifakt Element';-inkscape-font-specification:'Artifakt Element, Bold';font-variant-ligatures:normal;font-variant-caps:normal;font-variant-numeric:normal;font-variant-east-asian:normal;fill:#333333;stroke-width:1.01555"
   id="winner34"
   x="293.72922"
   y="303.14752"><tspan
     style="font-style:normal;font-variant:normal;font-weight:bold;font-stretch:normal;font-size:13.9164px;font-family:'Artifakt Element';-inkscape-font-specification:'Artifakt Element, Bold';font-variant-ligatures:normal;font-variant-caps:normal;font-variant-numeric:normal;font-variant-east-asian:normal;fill:#f9f9f9;stroke-width:1.01555"
     id="tspan118">Player</tspan></text></g>
			
				
			
				
		</g>
	</g>
	
</g>

</svg>
